<svg width="20" height="16" viewBox="0 0 20 16" fill="none" xmlns="http://www.w3.org/2000/svg">
<path fill-rule="evenodd" clip-rule="evenodd" d="M10.577 3.9378C10.2546 4.24723 9.74544 4.24723 9.423 3.9378L8.846 3.38408C8.17064 2.73598 7.25828 2.34025 6.25 2.34025C4.17893 2.34025 2.5 4.01918 2.5 6.09025C2.5 8.07577 3.57482 9.71529 5.12647 11.0624C6.67943 12.4106 8.53617 13.3048 9.64554 13.7611C9.8775 13.8566 10.1225 13.8566 10.3545 13.7611C11.4638 13.3048 13.3206 12.4106 14.8735 11.0624C16.4252 9.71529 17.5 8.07577 17.5 6.09025C17.5 4.01918 15.8211 2.34025 13.75 2.34025C12.7417 2.34025 11.8294 2.73598 11.154 3.38408L10.577 3.9378ZM10 2.18156C9.02676 1.24759 7.70541 0.673584 6.25 0.673584C3.25846 0.673584 0.833336 3.09871 0.833336 6.09025C0.833336 11.3971 6.64195 14.3278 9.01149 15.3025C9.64964 15.565 10.3504 15.565 10.9885 15.3025C13.358 14.3278 19.1667 11.3971 19.1667 6.09025C19.1667 3.09871 16.7415 0.673584 13.75 0.673584C12.2946 0.673584 10.9732 1.24759 10 2.18156Z" fill="#6C7275"/>
</svg>
