<svg width="21" height="17" viewBox="0 0 21 17" fill="none" xmlns="http://www.w3.org/2000/svg">
<path fill-rule="evenodd" clip-rule="evenodd" d="M2.07666 3.36766C2.2329 2.85549 2.70916 2.48291 3.27245 2.48291H17.2724C17.8357 2.48291 18.312 2.85549 18.4682 3.36766L10.2724 8.83152L2.07666 3.36766ZM0.522483 3.71917C0.522344 3.72718 0.522333 3.73517 0.522449 3.74317V13.7329C0.522449 15.2517 1.75367 16.4829 3.27245 16.4829H17.2724C18.7912 16.4829 20.0224 15.2517 20.0224 13.7329V3.74314M18.5224 5.1343V13.7329C18.5224 14.4233 17.9628 14.9829 17.2724 14.9829H3.27245C2.58209 14.9829 2.02245 14.4233 2.02245 13.7329V5.1343L9.85642 10.3569C10.1083 10.5249 10.4366 10.5249 10.6885 10.3569L18.5224 5.1343ZM20.0224 3.7192C20.015 2.20673 18.7867 0.98291 17.2724 0.98291H3.27245C1.75825 0.98291 0.52988 2.20671 0.522483 3.71917" fill="#141718"/>
</svg>
